<svg id="th_icon" data-name="th_icon" xmlns="http://www.w3.org/2000/svg" viewBox="0 0 165 257">

<path className="cls-1" d="M82.5,7.51A75,75,0,0,0,19.14,122.62a195.14,195.14,0,0,1,27.31-5.57c-1.23-13.11-2.67-26.69-4.5-43.2-4.26.19-8.55.42-12.82.68L14,75.47l11.31-10c13.57-12,32-27.92,53.91-43.92l3.06-2.23,3.07,2.23c22.36,16.28,41.17,32.54,55.05,44.88l11.75,10.44-15.66-1.36c-4.7-.4-9.43-.77-14.13-1.09-1.77,16.28-3.17,29.69-4.36,42.64a196.35,196.35,0,0,1,27.79,5.64A75,75,0,0,0,82.5,7.51Z"/>

<path className="cls-2" d="M124,165.39c0-8.7-11.26-16.12-27-19,5.91,2.15,9.76,5.58,9.76,9.46,0,2.58-3.79,10.81-8.37,19.81l-.09-8.62L82.49,204.92,63.3,159.6l-1.89,5.2c-1.89-4.2-3.1-7.47-3.1-8.93,0-3.87,3.84-7.3,9.74-9.45-15.77,2.86-27,10.27-27,19C41,169.62,61.39,214,61.39,214V195.53l21.11,54,24.17-63.38L104,204.92S124,169.21,124,165.39Z"/>

<path className="cls-2" d="M139.16,131.63a197,197,0,0,0-27.33-4.86l-.33,0a4.83,4.83,0,0,1-4.28-5.27c1-10.67,3.59-36.89,5.37-53.16l.54-4.94,5,.31,3.73.23c-11.17-9.64-24.49-20.64-39.48-31.72C67.56,43.11,54.49,53.91,43.54,63.35l2.86-.11,4.83-.19.54,4.82c1.83,16.42,4.46,42.87,5.51,53.6A4.82,4.82,0,0,1,53,126.74l-.33,0a195.09,195.09,0,0,0-26.88,4.81,75.25,75.25,0,0,0,8.74,8.57l6.5,5.41s-2.8-6.26,2.59-7.13a231.24,231.24,0,0,1,27.1-2.74c-.59-18.86-1.4-38.39-2.33-59.44,9.41-.17,18.79-.17,28.2,0-.93,21-1.74,40.58-2.33,59.44a230,230,0,0,1,27.14,2.75c5.35.88,2.56,7.12,2.56,7.12l6.5-5.41h0A75.28,75.28,0,0,0,139.16,131.63ZM88.54,66a9.94,9.94,0,1,1-7.2-18.17l2.79-.54-.22,2.38a7.15,7.15,0,0,0,5.32,13.26l1.87,1.45Z"/>

</svg>
