<svg id="th_only" data-name="th_onl" xmlns="http://www.w3.org/2000/svg" viewBox="0 0 750 265">

<path className="cls-1" d="M226,145.25H208.15V93.88h-16.1V79.31h50V93.88H226Z"/>

<path className="cls-1" d="M310.38,119.59q0,12.54-6.74,19.55t-18.87,7q-11.64,0-18.52-7.17t-6.87-19.39q0-12.5,6.74-19.42T285,93.25a26.9,26.9,0,0,1,13.3,3.2,21.8,21.8,0,0,1,8.91,9.18A29.6,29.6,0,0,1,310.38,119.59Zm-33.1,0q0,6.59,1.76,10a6.11,6.11,0,0,0,5.91,3.45,5.93,5.93,0,0,0,5.79-3.45q1.69-3.45,1.69-10c0-4.36-.57-7.66-1.71-9.88a6.79,6.79,0,0,0-11.68,0Q277.28,113,277.28,119.59Z"/>

<path className="cls-1" d="M331.26,81.43q0-4,2.21-5.91t7.13-1.94q4.9,0,7.17,2A7.39,7.39,0,0,1,350,81.43q0,7.75-9.42,7.76T331.26,81.43Zm18.08,63.82H331.71V94.15h17.63Z"/>

<path className="cls-1" d="M390.47,145.25H372.84V75.07h17.63Z"/>

<path className="cls-1" d="M438.54,146.15q-12.77,0-19.82-6.79T411.66,120q0-12.95,6.54-19.87t18.67-6.92q11.55,0,17.84,6T461,116.61v7.85H429.47a8.77,8.77,0,0,0,3.14,6.72q3,2.43,8.05,2.43a38.79,38.79,0,0,0,8.55-.88,41.36,41.36,0,0,0,8.45-3v12.68a31.07,31.07,0,0,1-8.57,2.93A59.33,59.33,0,0,1,438.54,146.15Zm-1-40.91a7.34,7.34,0,0,0-5.21,2c-1.4,1.3-2.22,3.36-2.46,6.15H445a8.81,8.81,0,0,0-2.1-5.91A6.93,6.93,0,0,0,437.5,105.24Z"/>

<path className="cls-1" d="M507.17,132.21a26.28,26.28,0,0,0,8.53-1.75v12.85a35.27,35.27,0,0,1-6.79,2.19,38.89,38.89,0,0,1-7.55.65q-8.89,0-12.81-4.35t-3.93-13.37V107.36h-6.17v-7.17l7.84-5.55,4.56-10.73h11.54V94.15h12.54v13.21H502.39v19.89C502.39,130.56,504,132.21,507.17,132.21Z"/>

<path className="cls-2" d="M593.36,145.25H575.45V118.37h-20.7v26.88H536.84V79.31h17.91v24.44h20.7V79.31h17.91Z"/>

<path className="cls-2" d="M617.39,81.43c0-2.65.73-4.62,2.21-5.91s3.85-1.94,7.12-1.94,5.67.66,7.17,2a7.36,7.36,0,0,1,2.26,5.86q0,7.75-9.43,7.76T617.39,81.43Zm18.08,63.82H617.84V94.15h17.63Z"/>

<path className="cls-2" d="M676.6,145.25H659V75.07H676.6Z"/>

<path className="cls-2" d="M717.63,145.25H700V75.07h17.63Z"/>

<path className="cls-1" d="M93.58,5.84A78.51,78.51,0,0,0,27.24,126.35a202.86,202.86,0,0,1,28.6-5.84c-1.29-13.73-2.8-27.94-4.71-45.23-4.47.2-9,.44-13.43.72L21.91,77,33.75,66.48C48,53.88,67.2,37.26,90.18,20.5l3.21-2.34L96.6,20.5c23.41,17,43.1,34.07,57.64,47l12.29,10.93L150.14,77c-4.92-.43-9.87-.81-14.79-1.15-1.85,17.05-3.32,31.09-4.57,44.64a205.35,205.35,0,0,1,29.09,5.91A78.5,78.5,0,0,0,93.58,5.84Z"/>

<path className="cls-2" d="M137,171.12c0-9.11-11.79-16.88-28.32-19.87,6.19,2.25,10.22,5.84,10.22,9.9,0,2.71-4,11.32-8.76,20.74l-.09-9L93.56,212.51,73.48,165.05l-2,5.45c-2-4.39-3.24-7.82-3.24-9.35,0-4.05,4-7.64,10.19-9.89-16.5,3-28.27,10.76-28.27,19.86,0,4.43,21.3,50.88,21.3,50.88V202.67l22.11,56.49,25.3-66.35-2.8,19.7S137,175.12,137,171.12Z"/>

<path className="cls-2" d="M152.9,135.78a208.2,208.2,0,0,0-28.62-5.09l-.35,0a5,5,0,0,1-4.48-5.51c1.08-11.17,3.76-38.62,5.62-55.65l.57-5.17,5.19.32,3.9.24C123,54.79,109.09,43.27,93.39,31.67,77.94,43.11,64.25,54.42,52.79,64.3l3-.12L60.84,64l.56,5c1.92,17.2,4.67,44.89,5.78,56.12a5.06,5.06,0,0,1-4.48,5.52l-.34,0a204.41,204.41,0,0,0-28.14,5,78.3,78.3,0,0,0,9.14,9l6.81,5.66s-2.93-6.55,2.71-7.46A241.23,241.23,0,0,1,81.25,140c-.61-19.73-1.46-40.18-2.43-62.22q14.76-.25,29.51,0c-1,22-1.81,42.49-2.43,62.22a241.93,241.93,0,0,1,28.41,2.88c5.61.93,2.68,7.46,2.68,7.46l6.81-5.66h0A79,79,0,0,0,152.9,135.78Zm-53-68.72a10.41,10.41,0,1,1-7.54-19l2.92-.56L95.05,50A7.48,7.48,0,0,0,98,64.32a7.4,7.4,0,0,0,2.63-.48l1.95,1.53Z"/>

</svg>

