<svg id="th_header" data-name="th_header" xmlns="http://www.w3.org/2000/svg" viewBox="0 0 1341.9 205.28">

<path className="cls-1" d="M82,171H47.56V71.7H16.45V43.54H113V71.7H82Z"/>

<path className="cls-1" d="M245.16,121.38q0,24.24-13,37.79t-36.48,13.55q-22.48,0-35.78-13.86t-13.29-37.48q0-24.15,13-37.53t36.57-13.37q14.55,0,25.71,6.19A42.2,42.2,0,0,1,239.1,94.4Q245.16,106,245.16,121.38Zm-64,0q0,12.74,3.4,19.4T196,147.44q7.94,0,11.2-6.66t3.27-19.4q0-12.63-3.31-19.09t-11.33-6.45q-7.84,0-11.25,6.41T181.17,121.38Z"/>

<path className="cls-1" d="M285.5,47.64q0-7.68,4.27-11.42c2.84-2.5,7.44-3.75,13.77-3.75s10.95,1.28,13.86,3.84,4.36,6.33,4.36,11.33q0,15-18.22,15Q285.5,62.63,285.5,47.64ZM320.45,171H286.37V72.22h34.08Z"/>

<path className="cls-1" d="M399.93,171H365.85V35.35h34.08Z"/>

<path className="cls-1" d="M492.84,172.72q-24.68,0-38.31-13.12t-13.65-37.35q0-25,12.64-38.4t36.09-13.37q22.32,0,34.47,11.63t12.17,33.52V130.8H475.32q.35,8.28,6.05,13t15.56,4.71a75.33,75.33,0,0,0,16.52-1.7,81,81,0,0,0,16.34-5.8v24.5a59.82,59.82,0,0,1-16.56,5.66A114.13,114.13,0,0,1,492.84,172.72Zm-2-79.06a14.16,14.16,0,0,0-10.07,3.79q-4,3.8-4.75,11.9H505.3q-.18-7.14-4.05-11.42A13.41,13.41,0,0,0,490.83,93.66Z"/>

<path className="cls-1" d="M625.49,145.79q6.88,0,16.47-3.4v24.84a66.53,66.53,0,0,1-13.12,4.23,74.4,74.4,0,0,1-14.6,1.26q-17.18,0-24.75-8.41t-7.59-25.84V97.76H570V83.9l15.17-10.72,8.8-20.75h22.32V72.22h24.23V97.76H616.25V136.2Q616.25,145.79,625.49,145.79Z"/>

<path className="cls-2" d="M792.05,171H757.44V119h-40V171h-34.6V43.54h34.6V90.79h40V43.54h34.61Z"/>

<path className="cls-2" d="M838.49,47.64q0-7.68,4.27-11.42t13.77-3.75q9.51,0,13.86,3.84t4.36,11.33q0,15-18.22,15Q838.49,62.63,838.49,47.64Zm35,123.34H839.36V72.22h34.08Z"/>

<path className="cls-2" d="M952.92,171H918.84V35.35h34.08Z"/>

<path className="cls-2" d="M1032.23,171H998.15V35.35h34.08Z"/>

<path className="cls-2" d="M1073.18,156.51q0-8,4.75-12.38t13.82-4.36q8.63,0,13.25,4.36t4.62,12.38q0,7.85-4.75,12.25t-13.12,4.4q-8.62,0-13.6-4.36T1073.18,156.51Z"/>

<path className="cls-2" d="M1150,47.64q0-7.68,4.27-11.42T1168,32.47q9.51,0,13.86,3.84t4.36,11.33q0,15-18.22,15Q1150,62.63,1150,47.64Zm35,123.34h-34.08V72.22h34.08Z"/>

<path className="cls-2" d="M1324.63,121.38q0,24.24-13,37.79t-36.47,13.55q-22.5,0-35.79-13.86T1226,121.38q0-24.15,13-37.53t36.57-13.37q14.55,0,25.71,6.19a42.2,42.2,0,0,1,17.22,17.73Q1324.63,106,1324.63,121.38Zm-64,0q0,12.74,3.39,19.4t11.42,6.66q7.93,0,11.21-6.66t3.26-19.4q0-12.63-3.31-19.09t-11.33-6.45q-7.85,0-11.25,6.41T1260.65,121.38Z"/>

</svg>
